# xmcd CD database file
#
# Track frame offsets:
#	150
#	16912
#	34325
#	47522
#	63211
#	82986
#	96538
#	112033
#	125481
#	139488
#	155631
#	169008
#
# Disc length: 2565 seconds
#
# Revision: 1
# Processed by: cddbd v1.5.2PL0 Copyright (c) Steve Scherf et al.
# Submitted via: CDex 1.86
#
DISCID=a20a030c
DTITLE=ADAM WAKEFIELD - GODS and GHOSTS
DYEAR=2018
DGENRE=Country
TTITLE0=BREAKING STRINGS
TTITLE1=CHEAP WHISKEY and BAD COCAINE
TTITLE2=GODS AND GHOSTS
TTITLE3=DRY DAYS
TTITLE4=GOOD MORNING SUNDAY
TTITLE5=AS GOOD AS IT GETS
TTITLE6=PRAIRIE LULLABY
TTITLE7=THE GOOD TIMES
TTITLE8=SHOOT ME WHERE I STAND
TTITLE9=SOMETIMES SARAH
TTITLE10=SHE LOVED COUNTRY MUSIC
TTITLE11=RIVER STONE
EXTD=YEAR: 2018
EXTT0=
EXTT1=
EXTT2=
EXTT3=
EXTT4=
EXTT5=
EXTT6=
EXTT7=
EXTT8=
EXTT9=
EXTT10=
EXTT11=
PLAYORDER=
